<svg width="86" height="29" viewBox="0 0 86 29" fill="none" xmlns="http://www.w3.org/2000/svg">
<path d="M8.15605 6.64396C8.15605 6.04802 8.04751 5.55677 7.83045 5.17021C7.62113 4.7756 7.29941 4.48568 6.86528 4.30046C6.43889 4.10718 5.9001 4.01054 5.2489 4.01054H3.9465V9.48275H5.44659C6.01251 9.48275 6.49704 9.38208 6.90016 9.18075C7.30329 8.97942 7.61338 8.66937 7.83045 8.2506C8.04751 7.83182 8.15605 7.29628 8.15605 6.64396ZM12.0865 6.63188C12.0865 7.92846 11.8191 8.99955 11.2841 9.84515C10.7492 10.6907 10.0011 11.3229 9.03982 11.7417C8.07852 12.1524 6.96218 12.3578 5.69079 12.3578H3.9465V17.9266H0.132324V1.18383H5.20239C7.38856 1.18383 9.08246 1.63482 10.2841 2.53679C11.4857 3.43876 12.0865 4.80379 12.0865 6.63188Z" fill="#1B1B1B"/>
<path d="M24.6479 14.2302C24.6479 14.7134 24.7099 15.0637 24.834 15.2811C24.9658 15.4986 25.1751 15.6636 25.4619 15.7764L24.7061 18.289C23.9773 18.2165 23.361 18.0514 22.8571 17.7937C22.361 17.528 21.9695 17.1293 21.6826 16.5978C21.2097 17.1857 20.6051 17.6246 19.8686 17.9145C19.1321 18.1964 18.3801 18.3373 17.6126 18.3373C16.3412 18.3373 15.3257 17.9629 14.5659 17.2139C13.814 16.4569 13.438 15.4865 13.438 14.3026C13.438 12.9094 13.9613 11.8343 15.0078 11.0773C16.0622 10.3203 17.5429 9.94179 19.4499 9.94179H21.1128V9.45859C21.1128 8.79017 20.9035 8.29489 20.4849 7.97276C20.074 7.65063 19.4693 7.48956 18.6708 7.48956C18.2755 7.48956 17.7677 7.54996 17.1475 7.67076C16.5273 7.7835 15.9071 7.9486 15.2869 8.16604L14.438 5.62925C15.2365 5.31517 16.066 5.0776 16.9265 4.91653C17.7948 4.75547 18.5701 4.67494 19.2523 4.67494C21.0896 4.67494 22.4462 5.06552 23.3223 5.84669C24.206 6.6198 24.6479 7.73921 24.6479 9.20491V14.2302ZM18.8801 15.6073C19.2755 15.6073 19.6903 15.4865 20.1244 15.2449C20.5585 14.9952 20.888 14.6449 21.1128 14.1939V12.1162H20.2058C19.1825 12.1162 18.4305 12.2813 17.9499 12.6115C17.4692 12.9336 17.2289 13.4087 17.2289 14.0369C17.2289 14.5281 17.3723 14.9147 17.6591 15.1966C17.9537 15.4704 18.3607 15.6073 18.8801 15.6073Z" fill="#1B1B1B"/>
<path d="M31.8718 5.09773V13.8798C31.8718 14.4999 31.9804 14.9268 32.1974 15.1603C32.4222 15.3939 32.7323 15.5106 33.1277 15.5106C33.5076 15.5106 33.8874 15.3858 34.2673 15.1362C34.6472 14.8865 34.965 14.5483 35.2209 14.1214V5.09773H38.8955V17.9266H35.686L35.5232 16.4287C35.1046 17.0569 34.5541 17.532 33.8719 17.8541C33.1897 18.1763 32.4765 18.3373 31.7323 18.3373C30.5384 18.3373 29.6508 17.979 29.0693 17.2622C28.4879 16.5374 28.1972 15.567 28.1972 14.351V5.09773H31.8718Z" fill="#1B1B1B"/>
<path d="M48.5846 0V13.8919C48.5846 14.4073 48.7242 14.7778 49.0033 15.0033C49.2901 15.2207 49.6816 15.3294 50.1778 15.3294C50.4956 15.3294 50.8018 15.2932 51.0964 15.2207C51.391 15.1402 51.6662 15.0476 51.922 14.9429L52.8058 17.4917C52.3872 17.7172 51.8833 17.9145 51.2941 18.0837C50.7049 18.2528 50.0188 18.3373 49.2358 18.3373C47.7474 18.3373 46.6543 17.8944 45.9566 17.0085C45.2589 16.1146 44.91 14.9187 44.91 13.4208V2.60927H41.2703V0H48.5846Z" fill="#1B1B1B"/>
<path d="M65.6591 18.3502C65.6591 17.052 65.5478 15.9948 65.3252 15.1788C65.1119 14.3627 64.8106 13.7322 64.4211 13.2871C64.0409 12.8419 63.5911 12.5359 63.0718 12.369C62.5525 12.2021 61.9915 12.1186 61.3888 12.1186H60.4151V24.7905H61.3888C62.0193 24.7905 62.5943 24.6931 63.1136 24.4984C63.6421 24.2943 64.0965 23.9559 64.4767 23.4829C64.8569 23.0007 65.149 22.3423 65.353 21.5077C65.5571 20.6732 65.6591 19.6207 65.6591 18.3502ZM70.3884 18.3502C70.3884 19.9174 70.2215 21.262 69.8876 22.3841C69.5538 23.4968 69.0855 24.4242 68.4828 25.166C67.8893 25.9079 67.1984 26.4921 66.4102 26.9187C65.622 27.3452 64.7735 27.6466 63.8647 27.8228C62.9559 27.999 62.0193 28.0871 61.0549 28.0871H55.8527V8.80811H60.7211C61.9544 8.80811 63.146 8.93793 64.2959 9.19758C65.4551 9.44796 66.489 9.91625 67.3978 10.6025C68.3158 11.2794 69.0438 12.2438 69.5816 13.4957C70.1195 14.7383 70.3884 16.3565 70.3884 18.3502Z" fill="#1B1B1B"/>
<path d="M77.2259 12.2658V17.5969H84.4635V21.0105H77.2259V28.9999H72.3264V8.8667H85.8931L85.3868 12.2658H77.2259Z" fill="#1B1B1B"/>
<circle cx="50.5228" cy="26.2307" r="2.42262" fill="#1B1B1B"/>
</svg>
