<svg width="56" height="47" viewBox="0 0 56 47" fill="none" xmlns="http://www.w3.org/2000/svg">
<path d="M40.7059 19.3333H52C53.6569 19.3333 55 20.6599 55 22.2963V39.6057V44C55 45.1046 54.1046 46 53 46H7.75M1 3.96296V43C1 44.6569 2.34315 46 4 46H9.8125C11.4694 46 12.8125 44.6569 12.8125 43V22.2963C12.8125 20.6599 14.1556 19.3333 15.8125 19.3333H49V12.329C49 10.6926 47.6569 9.36601 46 9.36601H26.2353L21.6511 2.35548C21.0985 1.51042 20.1495 1 19.1309 1H4C2.34315 1 1 2.32656 1 3.96296Z" stroke="#1B1B1B" stroke-width="4" stroke-linecap="round" stroke-linejoin="round"/>
</svg>
