<svg width="47" height="53" viewBox="0 0 47 53" fill="none" xmlns="http://www.w3.org/2000/svg">
<path d="M1 10L46 10M34.75 52H12.25C9.1434 52 6.625 49.3137 6.625 46V13C6.625 11.3431 7.8842 10 9.4375 10H37.5625C39.1158 10 40.375 11.3431 40.375 13V46C40.375 49.3137 37.8566 52 34.75 52ZM17.875 10H29.125C30.6783 10 31.9375 8.65685 31.9375 7V4C31.9375 2.34315 30.6783 1 29.125 1H17.875C16.3217 1 15.0625 2.34315 15.0625 4V7C15.0625 8.65685 16.3217 10 17.875 10Z" stroke="#1B1B1B" stroke-width="4" stroke-linecap="round"/>
</svg>
